# xmcd
#
# Track frame offsets:
# 150
# 16962
# 39331
# 54629
# 71215
# 85060
# 100886
# 114386
# 125873
# 139010
# 153013
# 167513
# 182582
# 198301
# 212798
# 227819
# 243430
# 258364
# 272330
# 284473
# 298344
# 313291
# 327204
# 341321
#
# Disc length: 4765 seconds
#
#
# Revision: 0
# Processed by: cddbd v1.5.2PL0 Copyright (c) Steve Scherf et al.
# Submitted via: FreeRIP 2.40 
#
DISCID=60129b18
DTITLE=Glenn Miller - Moonlight Serenade His 50 Finest
DYEAR=2002
DGENRE=Jazz
TTITLE0=A Nightengale Sang In Berkley Square
TTITLE1=Anvil Chorus
TTITLE2=Song of The Volga Boatman
TTITLE3=I Dreamt I Dwelt In Harlem
TTITLE4=Sun Valley Jump
TTITLE5=Chattanooga Choo Choo
TTITLE6=I Know Why
TTITLE7=You And
TTITLE8=Adios
TTITLE9=Elmer's Tune
TTITLE10=A String of Pearls
TTITLE11=Moonlight Cocktail
TTITLE12=Skylark
TTITLE13=Don't Sit Under The Apple Tree
TTITLE14=American Patrol
TTITLE15=Serenade In Blue
TTITLE16=I've Got A Gal In Kalamazoo
TTITLE17=At Last
TTITLE18=Caribbean Clipper
TTITLE19=That Old Black Magic
TTITLE20=Moonlight Becomes You
TTITLE21=Juke Box Saturday Night
TTITLE22=Rhapsody In Blue
TTITLE23=St Louis Blues March
EXTD=
EXTT0=
EXTT1=
EXTT2=
EXTT3=
EXTT4=
EXTT5=
EXTT6=
EXTT7=
EXTT8=
EXTT9=
EXTT10=
EXTT11=
EXTT12=
EXTT13=
EXTT14=
EXTT15=
EXTT16=
EXTT17=
EXTT18=
EXTT19=
EXTT20=
EXTT21=
EXTT22=
EXTT23=
PLAYORDER=
